<svg data-v-0dd9719b="" version="1.0" xmlns="http://www.w3.org/2000/svg" xmlns:xlink="http://www.w3.org/1999/xlink" width="100%" height="100%" viewBox="0 0 340.000000 250.000000" preserveAspectRatio="xMidYMid meet" color-interpolation-filters="sRGB" style="margin: auto;"> <rect data-v-0dd9719b="" x="0" y="0" width="100%" height="100%" fill="#fbfff6" fill-opacity="1" class="background"></rect> <rect data-v-0dd9719b="" x="0" y="0" width="100%" height="100%" fill="url(#watermark)" fill-opacity="1" class="watermarklayer"></rect> <g data-v-0dd9719b="" fill="#666e22" class="icon-text-wrapper icon-svg-group iconsvg" transform="translate(71.6199951171875,100.5036735534668)"><g class="iconsvg-imagesvg" transform="translate(0,0)"><g><rect fill="#666e22" fill-opacity="0" stroke-width="2" x="0" y="0" width="49" height="48.99265110233465" class="image-rect"></rect> <svg filter="url(#colors7498272552)" x="0" y="0" width="49" height="48.99265110233465" filtersec="colorsf8942876238" class="image-svg-svg primary" style="overflow: visible;"><svg viewBox="0 0 68.66999816894531 68.66000366210938" xmlns="http://www.w3.org/2000/svg"><title>4</title><path d="M34.481 26.87c4.036.078 7.319 3.425 7.319 7.46 0 4.113-3.346 7.46-7.46 7.46-4.066 0-7.339-3.178-7.45-7.18v-7.742l7.591.002zM34.52 0h-7.935v.004H22.89l.001 34.661c.172 6.238 5.201 11.125 11.449 11.125 6.319 0 11.46-5.141 11.46-11.46 0-6.197-5.043-11.338-11.279-11.46l-7.631-.002v-3.6l7.609-.018c8.228.089 14.921 6.853 14.921 15.08 0 8.315-6.765 15.08-15.08 15.08-8.192 0-14.957-6.652-15.08-14.8V.004h-4v34.637c.157 10.349 8.716 18.769 19.08 18.769 10.521 0 19.08-8.56 19.08-19.08 0-10.409-8.469-18.968-18.905-19.08l-7.625.018v-3.625l7.615-.023c12.432.092 22.545 10.28 22.545 22.71 0 12.522-10.187 22.71-22.71 22.71-12.598 0-22.567-9.745-22.698-22.271L11.63.004h-4V34.61l.015.286C7.796 49.557 19.522 61.04 34.34 61.04c14.728 0 26.71-11.983 26.71-26.71 0-14.619-11.894-26.602-26.536-26.71l-7.624.023V4h7.619C51.14 4.094 64.67 17.7 64.67 34.33c0 16.724-13.606 30.33-30.33 30.33C17.751 64.66 4.141 51.172 4 34.61V.004H0v34.623C.159 53.393 15.564 68.66 34.34 68.66c18.93 0 34.33-15.4 34.33-34.33C68.67 15.507 53.356.106 34.52 0z" fill="#333" fill-rule="evenodd"></path></svg></svg> <defs><filter id="colors7498272552"><feColorMatrix type="matrix" values="0 0 0 0 0.3984375  0 0 0 0 0.4296875  0 0 0 0 0.1328125  0 0 0 1 0" class="icon-fecolormatrix"></feColorMatrix></filter> <filter id="colorsf8942876238"><feColorMatrix type="matrix" values="0 0 0 0 0.99609375  0 0 0 0 0.99609375  0 0 0 0 0.99609375  0 0 0 1 0" class="icon-fecolormatrix"></feColorMatrix></filter> <filter id="colorsb7382415421"><feColorMatrix type="matrix" values="0 0 0 0 0  0 0 0 0 0  0 0 0 0 0  0 0 0 1 0" class="icon-fecolormatrix"></feColorMatrix></filter></defs></g></g> <g transform="translate(56,1.3644523620605469)"><g data-gra="path-name" fill-rule="" class="tp-name iconsvg-namesvg" transform="translate(0,0)"><g transform="scale(1)"><g><path d="M26.06-15.55Q30.74-13.25 34.38-12.78L34.38-12.78 34.38-9.32Q27.94-10.62 22.54-13.57L22.54-13.57Q16.7-10.62 11.05-9.25L11.05-9.25 11.05-12.71Q15.01-13.5 19.48-15.52L19.48-15.52Q16.49-17.68 15.34-19.62L15.34-19.62Q13.75-18.18 11.05-17.28L11.05-17.28 11.05-20.74Q12.92-21.53 13.9-23.15 14.87-24.77 15.26-27.18L15.26-27.18 18.72-27.18Q18.58-25.92 18.43-25.31L18.43-25.31 32.29-25.31Q33.12-25.31 33.32-24.86 33.52-24.41 33.52-23.69L33.52-23.69 33.52-22.36Q32.8-20.88 30.85-19.12 28.91-17.35 26.06-15.55L26.06-15.55ZM4.1-22.64Q3.17-22.64 2.5-23.29 1.84-23.94 1.84-24.88L1.84-24.88Q1.84-25.81 2.5-26.48 3.17-27.14 4.1-27.14L4.1-27.14Q5.04-27.14 5.69-26.48 6.34-25.81 6.34-24.88L6.34-24.88Q6.34-23.98 5.67-23.31 5-22.64 4.1-22.64L4.1-22.64ZM17.42-22.28Q17.82-21.28 19.31-19.94 20.81-18.61 22.97-17.28L22.97-17.28Q25.24-18.5 26.98-19.82 28.73-21.13 29.66-22.36L29.66-22.36 17.46-22.36 17.42-22.28ZM1.62-18.18Q5.11-18.14 7.04-16.18 8.96-14.22 8.96-10.19L8.96-10.19Q8.96-6.95 7.63-2.38L7.63-2.38 5.29 5.58 1.84 5.58 4.07-2.63Q5.33-7.2 5.33-10.12L5.33-10.12Q5.33-12.6 4.37-13.64 3.42-14.69 1.62-14.87L1.62-14.87 1.62-18.18ZM29.77-10.19Q31.07-10.19 31.99-9.25 32.9-8.32 32.9-7.02L32.9-7.02 32.9 2.34Q32.9 3.64 31.99 4.55 31.07 5.47 29.77 5.47L29.77 5.47 12.31 5.47 12.31-7.02Q12.31-8.32 13.23-9.25 14.15-10.19 15.48-10.19L15.48-10.19 29.77-10.19ZM29.45 2.52L29.45-6.34Q29.45-6.7 29.2-6.97 28.94-7.24 28.58-7.24L28.58-7.24 15.77-7.24 15.77 2.52 29.45 2.52ZM45.72-26.82Q49.82-26.82 49.82-22.75L49.82-22.75 49.82-14.83Q49.82-13.25 48.78-12.02L48.78-12.02Q49.82-10.8 49.82-9.22L49.82-9.22 49.82-1.33Q49.82 3.49 46.33 3.49L46.33 3.49 42.37 3.49 42.37 0.54 46.37 0.54 46.37-7.99Q46.37-9.04 45.61-9.79 44.86-10.55 43.81-10.55L43.81-10.55 42.73-10.55 42.73-13.5 43.81-13.5Q44.86-13.5 45.61-14.26 46.37-15.01 46.37-16.06L46.37-16.06 46.37-22.14Q46.37-22.97 46.3-23.27 46.22-23.58 45.95-23.72 45.68-23.87 44.96-23.87L44.96-23.87 41.15-23.87 41.15 5.58 37.69 5.58 37.69-23.18Q37.69-23.72 37.93-24.55 38.16-25.38 38.9-26.1 39.64-26.82 41-26.82L41-26.82 45.72-26.82ZM66.74-26.06Q68.04-26.06 68.96-25.13 69.88-24.19 69.88-22.9L69.88-22.9 69.88 1.37Q69.88 2.66 68.96 3.58 68.04 4.5 66.74 4.5L66.74 4.5 50.98 4.5 50.98-22.9Q50.98-24.19 51.89-25.13 52.81-26.06 54.11-26.06L54.11-26.06 66.74-26.06ZM54.43-12.38L66.42-12.38 66.42-22.21Q66.42-22.57 66.17-22.84 65.92-23.11 65.56-23.11L65.56-23.11 54.43-23.11 54.43-12.38ZM66.42 1.55L66.42-8.57Q66.42-8.93 66.19-9.18 65.95-9.43 65.59-9.43L65.59-9.43 54.43-9.43 54.43 1.55 66.42 1.55ZM77.65-19.26L77.65-17.03 74.2-17.03 74.2-20.05Q74.2-21.92 75.28-23.11 76.36-24.3 78.44-24.3L78.44-24.3 88.42-24.3 87.73-27.11 91.19-27.11 91.87-24.3 101.56-24.3Q103.64-24.3 104.72-23.11 105.8-21.92 105.8-20.05L105.8-20.05 105.8-17.03 102.35-17.03 102.35-19.26Q102.35-20.34 101.65-20.84 100.94-21.35 99.79-21.35L99.79-21.35 80.21-21.35Q79.06-21.35 78.35-20.84 77.65-20.34 77.65-19.26L77.65-19.26ZM102.1 2.66L106.06 2.66 106.06 4.14Q106.06 4.72 105.55 5.15 105.05 5.58 104.33 5.58L104.33 5.58 74.02 5.54 74.02 2.63 88.34 2.63 88.34-3.02Q88.27-3.78 87.95-4.03 87.62-4.28 86.65-4.28L86.65-4.28 75.35-4.28 75.35-7.24 88.31-7.24 88.31-10.62Q88.31-11.52 88.09-11.93 87.88-12.35 87.55-12.44 87.23-12.53 86.65-12.53L86.65-12.53 74.84-12.53 74.84-15.48 105.16-15.48 105.16-12.53 91.8-12.53 91.76-9.47 91.76-7.24 104.69-7.24 104.69-4.28 91.8-4.28 91.8-3.56 91.8-2.99 91.8 2.66 98.64 2.66 96.91-3.38 100.37-3.38 102.1 2.66ZM113.8-9.65Q113.8-8.53 113.51-7.94 113.22-7.34 112.07-7.34L112.07-7.34 110.34-7.34 110.34-20.74Q110.34-21.85 111.1-22.86 111.85-23.87 113.47-23.87L113.47-23.87 128.34-23.87Q128.16-24.98 127.94-27.14L127.94-27.14 131.4-27.14Q131.54-25.78 131.87-23.87L131.87-23.87 138.06-23.87 137.05-26.68 140.51-26.68 141.08-24.34Q141.3-23.58 141.3-23.04L141.3-23.04Q141.3-22 140.67-21.46 140.04-20.92 139.39-20.92L139.39-20.92 132.55-20.92Q133.16-18.76 134.06-16.85L134.06-16.85 136.37-18.94 140.33-18.94 135.4-14.44Q136.3-13 137.34-11.7 138.38-10.4 140-8.53L140-8.53 140.98-7.42 136.98-7.42Q134.68-9.72 132.98-12.2L132.98-12.2 128.23-7.88 124.27-7.88 131.54-14.54Q129.85-17.68 128.99-20.92L128.99-20.92 113.8-20.92 113.8-18.68 122.29-18.68Q124.16-18.68 125.35-17.86 126.54-17.03 126.54-15.37L126.54-15.37 126.54-12.1Q126.54-10.55 125.78-10.13 125.03-9.72 123.88-9.72L123.88-9.72 114.73-9.72 114.73-12.67 123.08-12.67 123.08-14.58Q123.08-15.41 122.62-15.59 122.15-15.77 121.48-15.75 120.82-15.73 120.53-15.73L120.53-15.73 113.8-15.73 113.8-9.65ZM139.86 2.66L142.38 2.66 142.38 3.89Q142.38 5.04 141.79 5.33 141.19 5.62 140.08 5.62L140.08 5.62 109.62 5.62 109.62 2.66 112.21 2.66 112.21-3.92Q112.21-5.22 113.13-6.14 114.05-7.06 115.38-7.06L115.38-7.06 136.73-7.06Q138.2-7.06 139.03-6.37 139.86-5.69 139.86-3.92L139.86-3.92 139.86 2.66ZM115.67-4.1L115.67 2.66 120.24 2.66 120.24-4.1 115.67-4.1ZM123.7 2.66L128.38 2.66 128.38-4.1 123.7-4.1 123.7 2.66ZM131.83-4.1L131.83 2.66 136.4 2.66 136.4-3.24Q136.4-3.6 136.15-3.85 135.9-4.1 135.54-4.1L135.54-4.1 131.83-4.1Z" transform="translate(-1.6200000047683716, 27.18000030517578)"></path></g> <!----> <!----> <!----> <!----> <!----> <!----> <!----></g></g> <g data-gra="path-slogan" fill-rule="" class="tp-slogan iconsvg-slogansvg" fill="#d37c1c" transform="translate(5,39.79999923706055)"><rect x="0" height="1" y="3.2300000190734863" width="9.115005493164062"></rect> <rect height="1" y="3.2300000190734863" width="9.115005493164062" x="121.64500427246094"></rect> <g transform="translate(12.115005493164062,0)"><g transform="scale(1)"><path d="M0.74-7.15L1.72-7.15L1.72-0.86L5.35-0.86L5.35 0L0.74 0L0.74-7.15ZM11.02-2.66L11.02-7.15L11.99-7.15L11.99-2.54Q11.88 0.04 9.06 0.12L9.06 0.12Q6.45 0.04 6.33-2.38L6.33-2.38L6.33-7.15L7.30-7.15L7.30-2.66Q7.34-0.70 9.10-0.66L9.10-0.66Q11.02-0.70 11.02-2.66L11.02-2.66ZM19.14-3.55L19.14-3.55Q18.98-6.37 16.64-6.52L16.64-6.52Q14.26-6.41 14.14-3.55L14.14-3.55Q14.26-0.78 16.64-0.66L16.64-0.66Q18.98-0.82 19.14-3.55ZM20.12-3.55L20.12-3.55Q19.88 0 16.64 0.12L16.64 0.12Q13.36 0 13.13-3.55L13.13-3.55Q13.32-7.27 16.64-7.34L16.64-7.34Q19.88-7.23 20.12-3.55ZM27.03-7.15L24.34-2.89L24.34 0L23.36 0L23.36-2.89L20.66-7.15L21.80-7.15L23.83-3.71L25.90-7.15L27.03-7.15ZM32.62 0L31.91-2.07L29.02-2.07L28.28 0L27.30 0L30-7.15L31.09-7.15L33.67 0L32.62 0ZM30.47-6.09L29.34-2.93L31.56-2.93L30.51-6.09L30.47-6.09ZM35.70-7.15L39.30-1.37L39.30-7.15L40.23-7.15L40.23 0L39.14 0L35.51-5.78L35.47-5.78L35.47 0L34.53 0L34.53-7.15L35.70-7.15ZM47.07-3.01L44.88-3.01L44.88-3.83L48.01-3.83L48.01 0L47.38 0L47.15-0.90Q46.33 0.08 44.80 0.12L44.80 0.12Q43.36 0.12 42.58-0.63L42.58-0.63Q41.41-1.72 41.45-3.63L41.45-3.63Q41.72-7.19 44.84-7.34L44.84-7.34Q47.50-7.19 47.89-5L47.89-5L46.95-5Q46.56-6.48 44.80-6.52L44.80-6.52Q42.58-6.37 42.46-3.59L42.46-3.59Q42.46-0.63 44.84-0.63L44.84-0.63Q45.70-0.63 46.33-1.09L46.33-1.09Q47.11-1.72 47.07-3.01L47.07-3.01ZM54.96-6.37L53.24-6.37L53.24-4.14L54.96-4.14Q56.48-4.10 56.45-5.31L56.45-5.31Q56.45-6.37 54.96-6.37L54.96-6.37ZM55.35 0L52.27 0L52.27-7.15L55.43-7.15Q57.34-7.07 57.42-5.35L57.42-5.35Q57.42-4.30 56.48-3.87L56.48-3.87Q57.81-3.40 57.81-2.11L57.81-2.11Q57.70-0.08 55.35 0L55.35 0ZM55.12-3.32L53.24-3.32L53.24-0.82L55.31-0.82Q56.80-0.86 56.84-2.11L56.84-2.11Q56.84-3.32 55.12-3.32L55.12-3.32ZM63.63 0L62.93-2.07L60.04-2.07L59.30 0L58.32 0L61.02-7.15L62.11-7.15L64.69 0L63.63 0ZM61.48-6.09L60.35-2.93L62.58-2.93L61.52-6.09L61.48-6.09ZM71.21-3.55L71.21-3.55Q71.05-6.37 68.71-6.52L68.71-6.52Q66.33-6.41 66.21-3.55L66.21-3.55Q66.33-0.78 68.71-0.66L68.71-0.66Q71.05-0.82 71.21-3.55ZM72.19-3.55L72.19-3.55Q71.95 0 68.71 0.12L68.71 0.12Q65.43 0 65.20-3.55L65.20-3.55Q65.39-7.27 68.71-7.34L68.71-7.34Q71.95-7.23 72.19-3.55ZM78.55-5.08L78.55-5.08L77.66-5.08Q77.58-6.45 75.86-6.52L75.86-6.52Q74.26-6.48 74.26-5.27L74.26-5.27Q74.26-4.49 75.12-4.38L75.12-4.38L77.15-3.91Q78.75-3.52 78.75-1.95L78.75-1.95Q78.71 0.04 75.94 0.12L75.94 0.12Q74.41 0.12 73.79-0.51L73.79-0.51Q73.01-1.09 73.05-2.30L73.05-2.30L73.98-2.30Q74.02-0.66 75.94-0.63L75.94-0.63Q77.81-0.66 77.85-1.84L77.85-1.84Q78.01-2.81 76.29-3.13L76.29-3.13L74.80-3.44Q73.28-3.87 73.28-5.16L73.28-5.16Q73.40-7.27 75.78-7.34L75.78-7.34Q78.48-7.34 78.55-5.08ZM80.94-4.22L84.69-4.22L84.69-7.15L85.66-7.15L85.66 0L84.69 0L84.69-3.32L80.94-3.32L80.94 0L79.96 0L79.96-7.15L80.94-7.15L80.94-4.22ZM88.24-0.86L92.54-0.86L92.54 0L87.27 0L87.27-7.15L92.46-7.15L92.46-6.33L88.24-6.33L88.24-4.10L92.15-4.10L92.15-3.24L88.24-3.24L88.24-0.86ZM94.96-7.15L98.55-1.37L98.55-7.15L99.49-7.15L99.49 0L98.40 0L94.77-5.78L94.73-5.78L94.73 0L93.79 0L93.79-7.15L94.96-7.15ZM106.33-3.01L104.14-3.01L104.14-3.83L107.27-3.83L107.27 0L106.64 0L106.41-0.90Q105.59 0.08 104.06 0.12L104.06 0.12Q102.62 0.12 101.84-0.63L101.84-0.63Q100.66-1.72 100.70-3.63L100.70-3.63Q100.98-7.19 104.10-7.34L104.10-7.34Q106.76-7.19 107.15-5L107.15-5L106.21-5Q105.82-6.48 104.06-6.52L104.06-6.52Q101.84-6.37 101.72-3.59L101.72-3.59Q101.72-0.63 104.10-0.63L104.10-0.63Q104.96-0.63 105.59-1.09L105.59-1.09Q106.37-1.72 106.33-3.01L106.33-3.01Z" transform="translate(-0.7421875, 7.34375)"></path></g></g></g></g></g><defs v-gra="od"></defs></svg>